# xmcd
# 
# Track frame offsets:
#     182
#     14067
#     33297
#     45212
#     60082
#     78437
#     94837
#     113115
#     129332
#     140825
#     157360
# 
# Disc length: 2357
# 
# Revision: 5
# Processed by: cddbd v1.5.2PL0 Copyright (c) Steve Scherf et al.
# Submitted via: fre:ac v1.0.31
# 
DISCID=8b09330b
DTITLE=Lee Ann Womack - Some Things I Know
DYEAR=1998
DGENRE=Country
TTITLE0=Some Things I Know [With Vince Gill]
TTITLE1=A Little Past Little Rock [With Jason Sellers]
TTITLE2=(Now You See Me) Now You Don't
TTITLE3=I'd Rather Have What We Had [With Joe Diffie]
TTITLE4=The Man Who Made My Mama Cry
TTITLE5=I'll Think Of A Reason Later
TTITLE6=Don't Tell Me [With Buddy and Julie Miller]
TTITLE7=I Keep Forgetting [With Vince Gill]
TTITLE8=If You're Ever Down In Dallas
TTITLE9=When The Wheels Are Coming Off [With Ricky Skaggs and Sharon White]
TTITLE10=The Preacher Won't Have To Lie
EXTD=\nYEAR: 1998  ID3G:   2
EXTT0=
EXTT1=
EXTT2=
EXTT3=
EXTT4=
EXTT5=
EXTT6=
EXTT7=
EXTT8=
EXTT9=
EXTT10=
PLAYORDER=
